<svg width="375" height="812" viewBox="0 0 375 812" fill="none" xmlns="http://www.w3.org/2000/svg">
<g clip-path="url(#clip0_61_5803)">
<rect width="375" height="812" fill="#567DF4"/>
<path d="M408.298 224.2C470.209 224.2 520.398 174.011 520.398 112.1C520.398 50.1889 470.209 0 408.298 0C346.387 0 296.198 50.1889 296.198 112.1C296.198 174.011 346.387 224.2 408.298 224.2Z" stroke="#192342" stroke-width="2" stroke-miterlimit="10"/>
<path d="M360.153 193.204C362.481 178.978 352.835 165.559 338.61 163.231C324.384 160.903 310.964 170.548 308.636 184.774C306.308 198.999 315.954 212.419 330.179 214.747C344.405 217.075 357.825 207.43 360.153 193.204Z" stroke="#F3F6FF" stroke-miterlimit="10"/>
<path d="M339.762 174.932C343.037 160.895 334.313 146.861 320.276 143.586C306.239 140.311 292.205 149.035 288.93 163.072C285.655 177.109 294.379 191.143 308.416 194.418C322.453 197.693 336.487 188.969 339.762 174.932Z" fill="#F3F6FF" stroke="#F3F6FF" stroke-miterlimit="10"/>
<path d="M120.6 754.7C129.105 754.7 136 747.805 136 739.3C136 730.795 129.105 723.9 120.6 723.9C112.095 723.9 105.2 730.795 105.2 739.3C105.2 747.805 112.095 754.7 120.6 754.7Z" fill="#F3F6FF"/>
<path d="M-36 653.7C-36 589.7 15.9 537.9 79.8 537.9C143.8 537.9 195.6 589.8 195.6 653.7V987.3" stroke="#192342" stroke-miterlimit="10"/>
<path d="M-19.1 653.7C-19.1 599.1 25.3 554.7 79.9 554.7C134.5 554.7 178.9 599.1 178.9 653.7V987.3" stroke="#192342" stroke-miterlimit="10"/>
<path d="M-2.20007 653.7C-2.20007 608.4 34.5999 571.6 79.8999 571.6C125.2 571.6 162 608.4 162 653.7V987.3" stroke="#192342" stroke-miterlimit="10"/>
<path d="M14.7 987.3V653.7C14.7 617.8 43.9 588.5 79.9 588.5C115.9 588.5 145.1 617.7 145.1 653.7V987.3" stroke="#192342" stroke-miterlimit="10"/>
<path d="M31.6 987.3V653.7C31.6 627.1 53.3 605.4 79.9 605.4C106.5 605.4 128.2 627.1 128.2 653.7V987.3" stroke="#192342" stroke-miterlimit="10"/>
<path d="M113.9 541.1C113.9 544.6 111.1 547.5 107.5 547.5C103.9 547.5 101.1 544.7 101.1 541.1C101.1 537.6 103.9 534.7 107.5 534.7C111.1 534.7 113.9 537.6 113.9 541.1Z" fill="#F3F6FF"/>
<path d="M115.963 438.536C116.059 438.536 116.142 438.573 116.211 438.648L116.883 439.384C116.414 439.939 115.841 440.368 115.163 440.672C114.491 440.976 113.681 441.128 112.731 441.128C111.899 441.128 111.145 440.984 110.467 440.696C109.795 440.408 109.219 440.005 108.739 439.488C108.265 438.971 107.897 438.352 107.635 437.632C107.374 436.912 107.243 436.12 107.243 435.256C107.243 434.392 107.379 433.6 107.651 432.88C107.929 432.16 108.315 431.541 108.811 431.024C109.307 430.507 109.899 430.104 110.587 429.816C111.281 429.528 112.046 429.384 112.883 429.384C113.699 429.384 114.425 429.517 115.059 429.784C115.694 430.051 116.246 430.405 116.715 430.848L116.155 431.64C116.118 431.699 116.07 431.747 116.011 431.784C115.958 431.821 115.886 431.84 115.795 431.84C115.694 431.84 115.574 431.789 115.435 431.688C115.302 431.587 115.123 431.475 114.899 431.352C114.681 431.224 114.409 431.109 114.083 431.008C113.758 430.907 113.353 430.856 112.867 430.856C112.297 430.856 111.774 430.957 111.299 431.16C110.825 431.357 110.414 431.645 110.067 432.024C109.726 432.397 109.459 432.859 109.267 433.408C109.081 433.952 108.987 434.568 108.987 435.256C108.987 435.955 109.086 436.576 109.283 437.12C109.481 437.664 109.753 438.125 110.099 438.504C110.446 438.883 110.854 439.171 111.323 439.368C111.793 439.565 112.299 439.664 112.843 439.664C113.174 439.664 113.47 439.645 113.731 439.608C113.998 439.565 114.241 439.504 114.459 439.424C114.683 439.344 114.894 439.243 115.091 439.12C115.289 438.992 115.483 438.84 115.675 438.664C115.718 438.627 115.763 438.597 115.811 438.576C115.859 438.549 115.91 438.536 115.963 438.536ZM121.583 432.744C122.181 432.744 122.719 432.843 123.199 433.04C123.685 433.232 124.095 433.512 124.431 433.88C124.773 434.243 125.034 434.683 125.215 435.2C125.397 435.712 125.487 436.288 125.487 436.928C125.487 437.568 125.397 438.147 125.215 438.664C125.034 439.181 124.773 439.621 124.431 439.984C124.095 440.347 123.685 440.627 123.199 440.824C122.719 441.016 122.181 441.112 121.583 441.112C120.981 441.112 120.437 441.016 119.951 440.824C119.471 440.627 119.061 440.347 118.719 439.984C118.378 439.621 118.114 439.181 117.927 438.664C117.746 438.147 117.655 437.568 117.655 436.928C117.655 436.288 117.746 435.712 117.927 435.2C118.114 434.683 118.378 434.243 118.719 433.88C119.061 433.512 119.471 433.232 119.951 433.04C120.437 432.843 120.981 432.744 121.583 432.744ZM121.583 439.896C122.351 439.896 122.925 439.637 123.303 439.12C123.682 438.603 123.871 437.875 123.871 436.936C123.871 435.997 123.682 435.269 123.303 434.752C122.925 434.229 122.351 433.968 121.583 433.968C120.805 433.968 120.223 434.229 119.839 434.752C119.461 435.269 119.271 435.997 119.271 436.936C119.271 437.875 119.461 438.603 119.839 439.12C120.223 439.637 120.805 439.896 121.583 439.896ZM128.693 434C128.869 433.813 129.053 433.643 129.245 433.488C129.437 433.333 129.639 433.203 129.853 433.096C130.071 432.984 130.303 432.899 130.549 432.84C130.799 432.776 131.066 432.744 131.349 432.744C131.797 432.744 132.189 432.819 132.525 432.968C132.866 433.117 133.151 433.328 133.381 433.6C133.61 433.867 133.783 434.189 133.901 434.568C134.018 434.947 134.077 435.365 134.077 435.824V441H132.509V435.824C132.509 435.243 132.375 434.792 132.109 434.472C131.842 434.147 131.434 433.984 130.885 433.984C130.485 433.984 130.109 434.08 129.757 434.272C129.41 434.459 129.087 434.715 128.789 435.04V441H127.229V432.872H128.165C128.383 432.872 128.519 432.976 128.573 433.184L128.693 434ZM139.038 436.944C139.315 436.944 139.558 436.907 139.766 436.832C139.979 436.757 140.155 436.653 140.294 436.52C140.438 436.381 140.545 436.216 140.614 436.024C140.689 435.832 140.726 435.621 140.726 435.392C140.726 434.923 140.582 434.549 140.294 434.272C140.011 433.989 139.593 433.848 139.038 433.848C138.489 433.848 138.07 433.989 137.782 434.272C137.499 434.549 137.358 434.923 137.358 435.392C137.358 435.621 137.393 435.832 137.462 436.024C137.537 436.211 137.643 436.373 137.782 436.512C137.926 436.645 138.102 436.752 138.31 436.832C138.523 436.907 138.766 436.944 139.038 436.944ZM141.526 441.424C141.526 441.232 141.473 441.08 141.366 440.968C141.259 440.851 141.113 440.76 140.926 440.696C140.745 440.627 140.531 440.579 140.286 440.552C140.041 440.52 139.782 440.496 139.51 440.48C139.243 440.464 138.969 440.451 138.686 440.44C138.403 440.424 138.131 440.397 137.87 440.36C137.593 440.499 137.363 440.667 137.182 440.864C137.006 441.061 136.918 441.293 136.918 441.56C136.918 441.731 136.961 441.891 137.046 442.04C137.137 442.189 137.273 442.317 137.454 442.424C137.641 442.536 137.873 442.621 138.15 442.68C138.433 442.744 138.769 442.776 139.158 442.776C139.542 442.776 139.881 442.741 140.174 442.672C140.467 442.608 140.713 442.515 140.91 442.392C141.113 442.275 141.265 442.133 141.366 441.968C141.473 441.803 141.526 441.621 141.526 441.424ZM143.11 433.176V433.76C143.11 433.952 142.99 434.072 142.75 434.12L141.878 434.248C141.953 434.413 142.011 434.589 142.054 434.776C142.097 434.957 142.118 435.149 142.118 435.352C142.118 435.752 142.041 436.115 141.886 436.44C141.731 436.76 141.518 437.035 141.246 437.264C140.974 437.493 140.649 437.669 140.27 437.792C139.897 437.915 139.486 437.976 139.038 437.976C138.67 437.976 138.326 437.936 138.006 437.856C137.846 437.952 137.723 438.059 137.638 438.176C137.558 438.288 137.518 438.4 137.518 438.512C137.518 438.699 137.595 438.837 137.75 438.928C137.91 439.019 138.115 439.085 138.366 439.128C138.622 439.165 138.913 439.189 139.238 439.2C139.569 439.211 139.902 439.229 140.238 439.256C140.579 439.277 140.913 439.32 141.238 439.384C141.569 439.443 141.859 439.541 142.11 439.68C142.366 439.813 142.571 440 142.726 440.24C142.886 440.475 142.966 440.781 142.966 441.16C142.966 441.512 142.878 441.853 142.702 442.184C142.531 442.515 142.281 442.808 141.95 443.064C141.619 443.32 141.217 443.525 140.742 443.68C140.267 443.835 139.729 443.912 139.126 443.912C138.523 443.912 137.998 443.853 137.55 443.736C137.107 443.619 136.737 443.461 136.438 443.264C136.145 443.067 135.923 442.837 135.774 442.576C135.63 442.315 135.558 442.043 135.558 441.76C135.558 441.365 135.681 441.032 135.926 440.76C136.171 440.483 136.51 440.267 136.942 440.112C136.707 440.005 136.521 439.861 136.382 439.68C136.243 439.493 136.174 439.248 136.174 438.944C136.174 438.827 136.195 438.707 136.238 438.584C136.281 438.456 136.345 438.331 136.43 438.208C136.521 438.08 136.63 437.96 136.758 437.848C136.891 437.736 137.043 437.635 137.214 437.544C136.814 437.32 136.499 437.024 136.27 436.656C136.041 436.283 135.926 435.848 135.926 435.352C135.926 434.952 136.003 434.592 136.158 434.272C136.313 433.952 136.526 433.677 136.798 433.448C137.075 433.219 137.403 433.043 137.782 432.92C138.166 432.797 138.585 432.736 139.038 432.736C139.742 432.736 140.347 432.883 140.854 433.176H143.11ZM146.013 434.432C146.275 433.899 146.589 433.48 146.957 433.176C147.325 432.872 147.768 432.72 148.285 432.72C148.461 432.72 148.627 432.741 148.781 432.784C148.941 432.821 149.08 432.88 149.197 432.96L149.093 434.136C149.056 434.28 148.968 434.352 148.829 434.352C148.755 434.352 148.643 434.339 148.493 434.312C148.344 434.28 148.184 434.264 148.013 434.264C147.763 434.264 147.541 434.301 147.349 434.376C147.157 434.445 146.984 434.552 146.829 434.696C146.68 434.835 146.547 435.008 146.429 435.216C146.312 435.419 146.203 435.651 146.101 435.912V441H144.541V432.872H145.437C145.608 432.872 145.723 432.904 145.781 432.968C145.845 433.027 145.891 433.133 145.917 433.288L146.013 434.432ZM154.644 437.392C154.009 437.413 153.47 437.464 153.028 437.544C152.585 437.619 152.225 437.72 151.948 437.848C151.67 437.976 151.47 438.128 151.348 438.304C151.225 438.475 151.164 438.667 151.164 438.88C151.164 439.083 151.196 439.259 151.26 439.408C151.329 439.552 151.42 439.672 151.532 439.768C151.649 439.859 151.785 439.925 151.94 439.968C152.094 440.011 152.262 440.032 152.444 440.032C152.684 440.032 152.902 440.008 153.1 439.96C153.302 439.912 153.492 439.845 153.668 439.76C153.844 439.669 154.012 439.56 154.172 439.432C154.332 439.304 154.489 439.157 154.644 438.992V437.392ZM150.068 434.008C150.521 433.576 151.012 433.253 151.54 433.04C152.073 432.827 152.657 432.72 153.292 432.72C153.756 432.72 154.166 432.797 154.524 432.952C154.881 433.101 155.182 433.312 155.428 433.584C155.673 433.856 155.857 434.181 155.98 434.56C156.108 434.939 156.172 435.357 156.172 435.816V441H155.476C155.321 441 155.204 440.976 155.124 440.928C155.044 440.875 154.98 440.779 154.932 440.64L154.764 439.928C154.556 440.12 154.35 440.291 154.148 440.44C153.945 440.584 153.732 440.709 153.508 440.816C153.289 440.917 153.054 440.995 152.804 441.048C152.553 441.101 152.276 441.128 151.972 441.128C151.652 441.128 151.35 441.085 151.068 441C150.79 440.909 150.548 440.773 150.34 440.592C150.132 440.411 149.966 440.184 149.844 439.912C149.726 439.64 149.668 439.323 149.668 438.96C149.668 438.64 149.753 438.333 149.924 438.04C150.1 437.741 150.382 437.475 150.772 437.24C151.166 437.005 151.678 436.813 152.308 436.664C152.942 436.515 153.721 436.429 154.644 436.408V435.816C154.644 435.203 154.513 434.744 154.252 434.44C153.99 434.136 153.606 433.984 153.1 433.984C152.758 433.984 152.47 434.027 152.236 434.112C152.006 434.197 151.806 434.293 151.636 434.4C151.47 434.501 151.324 434.595 151.196 434.68C151.073 434.765 150.945 434.808 150.812 434.808C150.705 434.808 150.612 434.779 150.532 434.72C150.457 434.661 150.396 434.592 150.348 434.512L150.068 434.008ZM160.695 441.128C160.039 441.128 159.532 440.944 159.175 440.576C158.823 440.208 158.647 439.683 158.647 439V434.136H157.703C157.612 434.136 157.535 434.109 157.471 434.056C157.412 433.997 157.383 433.912 157.383 433.8V433.168L158.703 432.984L159.055 430.56C159.076 430.469 159.116 430.4 159.175 430.352C159.239 430.299 159.319 430.272 159.415 430.272H160.207V433H162.511V434.136H160.207V438.896C160.207 439.216 160.284 439.456 160.439 439.616C160.599 439.771 160.801 439.848 161.047 439.848C161.191 439.848 161.313 439.829 161.415 439.792C161.521 439.755 161.612 439.715 161.687 439.672C161.761 439.624 161.825 439.581 161.879 439.544C161.932 439.507 161.98 439.488 162.023 439.488C162.076 439.488 162.116 439.501 162.143 439.528C162.175 439.549 162.207 439.587 162.239 439.64L162.703 440.392C162.447 440.627 162.143 440.808 161.791 440.936C161.439 441.064 161.073 441.128 160.695 441.128ZM168.74 434.272C168.697 434.341 168.652 434.392 168.604 434.424C168.556 434.451 168.494 434.464 168.42 434.464C168.334 434.464 168.238 434.435 168.132 434.376C168.03 434.317 167.905 434.253 167.756 434.184C167.612 434.115 167.441 434.051 167.244 433.992C167.046 433.933 166.812 433.904 166.54 433.904C166.316 433.904 166.11 433.933 165.924 433.992C165.742 434.045 165.588 434.123 165.46 434.224C165.332 434.32 165.233 434.437 165.164 434.576C165.094 434.709 165.06 434.853 165.06 435.008C165.06 435.211 165.118 435.379 165.236 435.512C165.358 435.645 165.516 435.76 165.708 435.856C165.905 435.952 166.126 436.04 166.372 436.12C166.622 436.195 166.876 436.275 167.132 436.36C167.393 436.445 167.646 436.544 167.892 436.656C168.142 436.763 168.364 436.899 168.556 437.064C168.753 437.224 168.91 437.419 169.028 437.648C169.15 437.877 169.212 438.157 169.212 438.488C169.212 438.867 169.142 439.219 169.004 439.544C168.87 439.864 168.67 440.141 168.404 440.376C168.142 440.611 167.817 440.795 167.428 440.928C167.038 441.061 166.593 441.128 166.092 441.128C165.532 441.128 165.014 441.035 164.54 440.848C164.065 440.661 163.668 440.424 163.348 440.136L163.716 439.536C163.758 439.461 163.812 439.405 163.876 439.368C163.94 439.325 164.025 439.304 164.132 439.304C164.233 439.304 164.337 439.341 164.444 439.416C164.55 439.491 164.678 439.573 164.828 439.664C164.977 439.749 165.158 439.829 165.372 439.904C165.585 439.973 165.852 440.008 166.172 440.008C166.438 440.008 166.67 439.976 166.868 439.912C167.065 439.843 167.228 439.752 167.356 439.64C167.489 439.523 167.588 439.389 167.652 439.24C167.716 439.091 167.748 438.933 167.748 438.768C167.748 438.555 167.686 438.379 167.564 438.24C167.446 438.096 167.289 437.973 167.092 437.872C166.9 437.771 166.678 437.683 166.428 437.608C166.177 437.533 165.921 437.453 165.66 437.368C165.398 437.283 165.142 437.184 164.892 437.072C164.641 436.96 164.417 436.819 164.22 436.648C164.028 436.477 163.87 436.269 163.748 436.024C163.63 435.779 163.572 435.48 163.572 435.128C163.572 434.813 163.636 434.512 163.764 434.224C163.897 433.936 164.086 433.683 164.332 433.464C164.582 433.245 164.889 433.072 165.252 432.944C165.62 432.811 166.038 432.744 166.508 432.744C167.046 432.744 167.532 432.829 167.964 433C168.401 433.171 168.774 433.405 169.084 433.704L168.74 434.272ZM171.605 441C171.461 441 171.327 440.973 171.205 440.92C171.087 440.867 170.983 440.795 170.893 440.704C170.807 440.608 170.741 440.496 170.693 440.368C170.645 440.24 170.621 440.101 170.621 439.952C170.621 439.824 170.645 439.704 170.693 439.592C170.741 439.475 170.807 439.373 170.893 439.288C170.983 439.203 171.09 439.136 171.213 439.088C171.335 439.035 171.471 439.008 171.621 439.008C171.791 439.008 171.941 439.04 172.069 439.104C172.202 439.163 172.311 439.248 172.397 439.36C172.487 439.467 172.554 439.592 172.597 439.736C172.639 439.88 172.661 440.035 172.661 440.2C172.661 440.44 172.626 440.693 172.557 440.96C172.487 441.227 172.386 441.491 172.253 441.752C172.119 442.013 171.954 442.267 171.757 442.512C171.559 442.757 171.335 442.984 171.085 443.192L170.821 442.944C170.741 442.869 170.701 442.787 170.701 442.696C170.701 442.659 170.711 442.619 170.733 442.576C170.759 442.539 170.791 442.501 170.829 442.464C170.882 442.405 170.951 442.328 171.037 442.232C171.122 442.136 171.205 442.024 171.285 441.896C171.37 441.773 171.447 441.635 171.517 441.48C171.591 441.331 171.645 441.171 171.677 441H171.605ZM185.302 432.872L180.79 443.36C180.742 443.477 180.678 443.568 180.598 443.632C180.518 443.696 180.4 443.728 180.246 443.728H179.086L180.574 440.488L177.238 432.872H178.598C178.731 432.872 178.835 432.904 178.91 432.968C178.984 433.032 179.038 433.104 179.07 433.184L181.134 438.064C181.176 438.187 181.216 438.312 181.254 438.44C181.296 438.563 181.331 438.685 181.358 438.808C181.395 438.68 181.435 438.555 181.478 438.432C181.52 438.304 181.566 438.179 181.614 438.056L183.606 433.184C183.643 433.093 183.702 433.019 183.782 432.96C183.862 432.901 183.952 432.872 184.054 432.872H185.302ZM189.724 432.744C190.321 432.744 190.86 432.843 191.34 433.04C191.825 433.232 192.236 433.512 192.572 433.88C192.913 434.243 193.175 434.683 193.356 435.2C193.537 435.712 193.628 436.288 193.628 436.928C193.628 437.568 193.537 438.147 193.356 438.664C193.175 439.181 192.913 439.621 192.572 439.984C192.236 440.347 191.825 440.627 191.34 440.824C190.86 441.016 190.321 441.112 189.724 441.112C189.121 441.112 188.577 441.016 188.092 440.824C187.612 440.627 187.201 440.347 186.86 439.984C186.519 439.621 186.255 439.181 186.068 438.664C185.887 438.147 185.796 437.568 185.796 436.928C185.796 436.288 185.887 435.712 186.068 435.2C186.255 434.683 186.519 434.243 186.86 433.88C187.201 433.512 187.612 433.232 188.092 433.04C188.577 432.843 189.121 432.744 189.724 432.744ZM189.724 439.896C190.492 439.896 191.065 439.637 191.444 439.12C191.823 438.603 192.012 437.875 192.012 436.936C192.012 435.997 191.823 435.269 191.444 434.752C191.065 434.229 190.492 433.968 189.724 433.968C188.945 433.968 188.364 434.229 187.98 434.752C187.601 435.269 187.412 435.997 187.412 436.936C187.412 437.875 187.601 438.603 187.98 439.12C188.364 439.637 188.945 439.896 189.724 439.896ZM202.129 432.872V441H201.193C200.98 441 200.841 440.896 200.777 440.688L200.665 439.872C200.489 440.059 200.305 440.229 200.113 440.384C199.921 440.539 199.716 440.672 199.497 440.784C199.279 440.891 199.047 440.973 198.801 441.032C198.556 441.096 198.292 441.128 198.009 441.128C197.561 441.128 197.167 441.053 196.825 440.904C196.489 440.755 196.207 440.547 195.977 440.28C195.748 440.008 195.575 439.683 195.457 439.304C195.34 438.925 195.281 438.507 195.281 438.048V432.872H196.849V438.048C196.849 438.629 196.983 439.083 197.249 439.408C197.516 439.728 197.924 439.888 198.473 439.888C198.873 439.888 199.247 439.795 199.593 439.608C199.94 439.416 200.265 439.155 200.569 438.824V432.872H202.129ZM205.779 434.432C206.04 433.899 206.355 433.48 206.723 433.176C207.091 432.872 207.534 432.72 208.051 432.72C208.227 432.72 208.392 432.741 208.547 432.784C208.707 432.821 208.846 432.88 208.963 432.96L208.859 434.136C208.822 434.28 208.734 434.352 208.595 434.352C208.52 434.352 208.408 434.339 208.259 434.312C208.11 434.28 207.95 434.264 207.779 434.264C207.528 434.264 207.307 434.301 207.115 434.376C206.923 434.445 206.75 434.552 206.595 434.696C206.446 434.835 206.312 435.008 206.195 435.216C206.078 435.419 205.968 435.651 205.867 435.912V441H204.307V432.872H205.203C205.374 432.872 205.488 432.904 205.547 432.968C205.611 433.027 205.656 433.133 205.683 433.288L205.779 434.432ZM218.237 437.392C217.603 437.413 217.064 437.464 216.621 437.544C216.179 437.619 215.819 437.72 215.541 437.848C215.264 437.976 215.064 438.128 214.941 438.304C214.819 438.475 214.757 438.667 214.757 438.88C214.757 439.083 214.789 439.259 214.853 439.408C214.923 439.552 215.013 439.672 215.125 439.768C215.243 439.859 215.379 439.925 215.533 439.968C215.688 440.011 215.856 440.032 216.037 440.032C216.277 440.032 216.496 440.008 216.693 439.96C216.896 439.912 217.085 439.845 217.261 439.76C217.437 439.669 217.605 439.56 217.765 439.432C217.925 439.304 218.083 439.157 218.237 438.992V437.392ZM213.661 434.008C214.115 433.576 214.605 433.253 215.133 433.04C215.667 432.827 216.251 432.72 216.885 432.72C217.349 432.72 217.76 432.797 218.117 432.952C218.475 433.101 218.776 433.312 219.021 433.584C219.267 433.856 219.451 434.181 219.573 434.56C219.701 434.939 219.765 435.357 219.765 435.816V441H219.069C218.915 441 218.797 440.976 218.717 440.928C218.637 440.875 218.573 440.779 218.525 440.64L218.357 439.928C218.149 440.12 217.944 440.291 217.741 440.44C217.539 440.584 217.325 440.709 217.101 440.816C216.883 440.917 216.648 440.995 216.397 441.048C216.147 441.101 215.869 441.128 215.565 441.128C215.245 441.128 214.944 441.085 214.661 441C214.384 440.909 214.141 440.773 213.933 440.592C213.725 440.411 213.56 440.184 213.437 439.912C213.32 439.64 213.261 439.323 213.261 438.96C213.261 438.64 213.347 438.333 213.517 438.04C213.693 437.741 213.976 437.475 214.365 437.24C214.76 437.005 215.272 436.813 215.901 436.664C216.536 436.515 217.315 436.429 218.237 436.408V435.816C218.237 435.203 218.107 434.744 217.845 434.44C217.584 434.136 217.2 433.984 216.693 433.984C216.352 433.984 216.064 434.027 215.829 434.112C215.6 434.197 215.4 434.293 215.229 434.4C215.064 434.501 214.917 434.595 214.789 434.68C214.667 434.765 214.539 434.808 214.405 434.808C214.299 434.808 214.205 434.779 214.125 434.72C214.051 434.661 213.989 434.592 213.941 434.512L213.661 434.008ZM227.55 434.392C227.502 434.451 227.454 434.499 227.406 434.536C227.363 434.568 227.299 434.584 227.214 434.584C227.128 434.584 227.038 434.552 226.942 434.488C226.851 434.419 226.734 434.347 226.59 434.272C226.451 434.192 226.28 434.12 226.078 434.056C225.88 433.987 225.635 433.952 225.342 433.952C224.958 433.952 224.619 434.021 224.326 434.16C224.032 434.299 223.787 434.496 223.59 434.752C223.398 435.008 223.251 435.32 223.15 435.688C223.048 436.056 222.998 436.469 222.998 436.928C222.998 437.403 223.051 437.827 223.158 438.2C223.264 438.568 223.416 438.88 223.614 439.136C223.811 439.387 224.051 439.579 224.334 439.712C224.616 439.84 224.931 439.904 225.278 439.904C225.614 439.904 225.891 439.864 226.11 439.784C226.328 439.699 226.51 439.608 226.654 439.512C226.798 439.416 226.918 439.328 227.014 439.248C227.11 439.163 227.208 439.12 227.31 439.12C227.438 439.12 227.536 439.168 227.606 439.264L228.054 439.84C227.867 440.069 227.656 440.264 227.422 440.424C227.192 440.584 226.947 440.715 226.686 440.816C226.424 440.917 226.15 440.992 225.862 441.04C225.579 441.088 225.291 441.112 224.998 441.112C224.491 441.112 224.016 441.019 223.574 440.832C223.136 440.645 222.755 440.373 222.43 440.016C222.11 439.659 221.856 439.221 221.67 438.704C221.483 438.181 221.39 437.589 221.39 436.928C221.39 436.325 221.472 435.768 221.638 435.256C221.808 434.744 222.056 434.304 222.382 433.936C222.712 433.563 223.118 433.272 223.598 433.064C224.078 432.851 224.627 432.744 225.246 432.744C225.827 432.744 226.339 432.837 226.782 433.024C227.224 433.211 227.619 433.475 227.966 433.816L227.55 434.392ZM235.065 434.392C235.017 434.451 234.969 434.499 234.921 434.536C234.879 434.568 234.815 434.584 234.729 434.584C234.644 434.584 234.553 434.552 234.457 434.488C234.367 434.419 234.249 434.347 234.105 434.272C233.967 434.192 233.796 434.12 233.593 434.056C233.396 433.987 233.151 433.952 232.857 433.952C232.473 433.952 232.135 434.021 231.841 434.16C231.548 434.299 231.303 434.496 231.105 434.752C230.913 435.008 230.767 435.32 230.665 435.688C230.564 436.056 230.513 436.469 230.513 436.928C230.513 437.403 230.567 437.827 230.673 438.2C230.78 438.568 230.932 438.88 231.129 439.136C231.327 439.387 231.567 439.579 231.849 439.712C232.132 439.84 232.447 439.904 232.793 439.904C233.129 439.904 233.407 439.864 233.625 439.784C233.844 439.699 234.025 439.608 234.169 439.512C234.313 439.416 234.433 439.328 234.529 439.248C234.625 439.163 234.724 439.12 234.825 439.12C234.953 439.12 235.052 439.168 235.121 439.264L235.569 439.84C235.383 440.069 235.172 440.264 234.937 440.424C234.708 440.584 234.463 440.715 234.201 440.816C233.94 440.917 233.665 440.992 233.377 441.04C233.095 441.088 232.807 441.112 232.513 441.112C232.007 441.112 231.532 441.019 231.089 440.832C230.652 440.645 230.271 440.373 229.945 440.016C229.625 439.659 229.372 439.221 229.185 438.704C228.999 438.181 228.905 437.589 228.905 436.928C228.905 436.325 228.988 435.768 229.153 435.256C229.324 434.744 229.572 434.304 229.897 433.936C230.228 433.563 230.633 433.272 231.113 433.064C231.593 432.851 232.143 432.744 232.761 432.744C233.343 432.744 233.855 432.837 234.297 433.024C234.74 433.211 235.135 433.475 235.481 433.816L235.065 434.392ZM240.349 432.744C240.946 432.744 241.485 432.843 241.965 433.04C242.45 433.232 242.861 433.512 243.197 433.88C243.538 434.243 243.8 434.683 243.981 435.2C244.162 435.712 244.253 436.288 244.253 436.928C244.253 437.568 244.162 438.147 243.981 438.664C243.8 439.181 243.538 439.621 243.197 439.984C242.861 440.347 242.45 440.627 241.965 440.824C241.485 441.016 240.946 441.112 240.349 441.112C239.746 441.112 239.202 441.016 238.717 440.824C238.237 440.627 237.826 440.347 237.485 439.984C237.144 439.621 236.88 439.181 236.693 438.664C236.512 438.147 236.421 437.568 236.421 436.928C236.421 436.288 236.512 435.712 236.693 435.2C236.88 434.683 237.144 434.243 237.485 433.88C237.826 433.512 238.237 433.232 238.717 433.04C239.202 432.843 239.746 432.744 240.349 432.744ZM240.349 439.896C241.117 439.896 241.69 439.637 242.069 439.12C242.448 438.603 242.637 437.875 242.637 436.936C242.637 435.997 242.448 435.269 242.069 434.752C241.69 434.229 241.117 433.968 240.349 433.968C239.57 433.968 238.989 434.229 238.605 434.752C238.226 435.269 238.037 435.997 238.037 436.936C238.037 437.875 238.226 438.603 238.605 439.12C238.989 439.637 239.57 439.896 240.349 439.896ZM252.754 432.872V441H251.818C251.605 441 251.466 440.896 251.402 440.688L251.29 439.872C251.114 440.059 250.93 440.229 250.738 440.384C250.546 440.539 250.341 440.672 250.122 440.784C249.904 440.891 249.672 440.973 249.426 441.032C249.181 441.096 248.917 441.128 248.634 441.128C248.186 441.128 247.792 441.053 247.45 440.904C247.114 440.755 246.832 440.547 246.602 440.28C246.373 440.008 246.2 439.683 246.082 439.304C245.965 438.925 245.906 438.507 245.906 438.048V432.872H247.474V438.048C247.474 438.629 247.608 439.083 247.874 439.408C248.141 439.728 248.549 439.888 249.098 439.888C249.498 439.888 249.872 439.795 250.218 439.608C250.565 439.416 250.89 439.155 251.194 438.824V432.872H252.754ZM256.396 434C256.572 433.813 256.756 433.643 256.948 433.488C257.14 433.333 257.343 433.203 257.556 433.096C257.775 432.984 258.007 432.899 258.252 432.84C258.503 432.776 258.769 432.744 259.052 432.744C259.5 432.744 259.892 432.819 260.228 432.968C260.569 433.117 260.855 433.328 261.084 433.6C261.313 433.867 261.487 434.189 261.604 434.568C261.721 434.947 261.78 435.365 261.78 435.824V441H260.212V435.824C260.212 435.243 260.079 434.792 259.812 434.472C259.545 434.147 259.137 433.984 258.588 433.984C258.188 433.984 257.812 434.08 257.46 434.272C257.113 434.459 256.791 434.715 256.492 435.04V441H254.932V432.872H255.868C256.087 432.872 256.223 432.976 256.276 433.184L256.396 434ZM266.32 441.128C265.664 441.128 265.157 440.944 264.8 440.576C264.448 440.208 264.272 439.683 264.272 439V434.136H263.328C263.237 434.136 263.16 434.109 263.096 434.056C263.037 433.997 263.008 433.912 263.008 433.8V433.168L264.328 432.984L264.68 430.56C264.701 430.469 264.741 430.4 264.8 430.352C264.864 430.299 264.944 430.272 265.04 430.272H265.832V433H268.136V434.136H265.832V438.896C265.832 439.216 265.909 439.456 266.064 439.616C266.224 439.771 266.426 439.848 266.672 439.848C266.816 439.848 266.938 439.829 267.04 439.792C267.146 439.755 267.237 439.715 267.312 439.672C267.386 439.624 267.45 439.581 267.504 439.544C267.557 439.507 267.605 439.488 267.648 439.488C267.701 439.488 267.741 439.501 267.768 439.528C267.8 439.549 267.832 439.587 267.864 439.64L268.328 440.392C268.072 440.627 267.768 440.808 267.416 440.936C267.064 441.064 266.698 441.128 266.32 441.128ZM86.6013 460.904C86.9426 460.557 87.3186 460.277 87.7293 460.064C88.1453 459.851 88.6226 459.744 89.1613 459.744C89.6093 459.744 90.0013 459.819 90.3373 459.968C90.6786 460.117 90.964 460.328 91.1933 460.6C91.4226 460.867 91.596 461.189 91.7133 461.568C91.8306 461.947 91.8893 462.365 91.8893 462.824V468H90.3213V462.824C90.3213 462.243 90.188 461.792 89.9213 461.472C89.6546 461.147 89.2466 460.984 88.6973 460.984C88.2973 460.984 87.9213 461.08 87.5693 461.272C87.2226 461.459 86.9 461.715 86.6013 462.04V468H85.0413V456.192H86.6013V460.904ZM98.3624 464.392C97.7278 464.413 97.1891 464.464 96.7464 464.544C96.3038 464.619 95.9438 464.72 95.6664 464.848C95.3891 464.976 95.1891 465.128 95.0664 465.304C94.9438 465.475 94.8824 465.667 94.8824 465.88C94.8824 466.083 94.9144 466.259 94.9784 466.408C95.0478 466.552 95.1384 466.672 95.2504 466.768C95.3678 466.859 95.5038 466.925 95.6584 466.968C95.8131 467.011 95.9811 467.032 96.1624 467.032C96.4024 467.032 96.6211 467.008 96.8184 466.96C97.0211 466.912 97.2104 466.845 97.3864 466.76C97.5624 466.669 97.7304 466.56 97.8904 466.432C98.0504 466.304 98.2078 466.157 98.3624 465.992V464.392ZM93.7864 461.008C94.2398 460.576 94.7304 460.253 95.2584 460.04C95.7918 459.827 96.3758 459.72 97.0104 459.72C97.4744 459.72 97.8851 459.797 98.2424 459.952C98.5998 460.101 98.9011 460.312 99.1464 460.584C99.3918 460.856 99.5758 461.181 99.6984 461.56C99.8264 461.939 99.8904 462.357 99.8904 462.816V468H99.1944C99.0398 468 98.9224 467.976 98.8424 467.928C98.7624 467.875 98.6984 467.779 98.6504 467.64L98.4824 466.928C98.2744 467.12 98.0691 467.291 97.8664 467.44C97.6638 467.584 97.4504 467.709 97.2264 467.816C97.0078 467.917 96.7731 467.995 96.5224 468.048C96.2718 468.101 95.9944 468.128 95.6904 468.128C95.3704 468.128 95.0691 468.085 94.7864 468C94.5091 467.909 94.2664 467.773 94.0584 467.592C93.8504 467.411 93.6851 467.184 93.5624 466.912C93.4451 466.64 93.3864 466.323 93.3864 465.96C93.3864 465.64 93.4718 465.333 93.6424 465.04C93.8184 464.741 94.1011 464.475 94.4904 464.24C94.8851 464.005 95.3971 463.813 96.0264 463.664C96.6611 463.515 97.4398 463.429 98.3624 463.408V462.816C98.3624 462.203 98.2318 461.744 97.9704 461.44C97.7091 461.136 97.3251 460.984 96.8184 460.984C96.4771 460.984 96.1891 461.027 95.9544 461.112C95.7251 461.197 95.5251 461.293 95.3544 461.4C95.1891 461.501 95.0424 461.595 94.9144 461.68C94.7918 461.765 94.6638 461.808 94.5304 461.808C94.4238 461.808 94.3304 461.779 94.2504 461.72C94.1758 461.661 94.1144 461.592 94.0664 461.512L93.7864 461.008ZM106.771 461.272C106.728 461.341 106.683 461.392 106.635 461.424C106.587 461.451 106.525 461.464 106.451 461.464C106.365 461.464 106.269 461.435 106.163 461.376C106.061 461.317 105.936 461.253 105.787 461.184C105.643 461.115 105.472 461.051 105.275 460.992C105.077 460.933 104.843 460.904 104.571 460.904C104.347 460.904 104.141 460.933 103.955 460.992C103.773 461.045 103.619 461.123 103.491 461.224C103.363 461.32 103.264 461.437 103.195 461.576C103.125 461.709 103.091 461.853 103.091 462.008C103.091 462.211 103.149 462.379 103.267 462.512C103.389 462.645 103.547 462.76 103.739 462.856C103.936 462.952 104.157 463.04 104.403 463.12C104.653 463.195 104.907 463.275 105.163 463.36C105.424 463.445 105.677 463.544 105.923 463.656C106.173 463.763 106.395 463.899 106.587 464.064C106.784 464.224 106.941 464.419 107.059 464.648C107.181 464.877 107.243 465.157 107.243 465.488C107.243 465.867 107.173 466.219 107.035 466.544C106.901 466.864 106.701 467.141 106.435 467.376C106.173 467.611 105.848 467.795 105.459 467.928C105.069 468.061 104.624 468.128 104.123 468.128C103.563 468.128 103.045 468.035 102.571 467.848C102.096 467.661 101.699 467.424 101.379 467.136L101.747 466.536C101.789 466.461 101.843 466.405 101.907 466.368C101.971 466.325 102.056 466.304 102.163 466.304C102.264 466.304 102.368 466.341 102.475 466.416C102.581 466.491 102.709 466.573 102.859 466.664C103.008 466.749 103.189 466.829 103.403 466.904C103.616 466.973 103.883 467.008 104.203 467.008C104.469 467.008 104.701 466.976 104.899 466.912C105.096 466.843 105.259 466.752 105.387 466.64C105.52 466.523 105.619 466.389 105.683 466.24C105.747 466.091 105.779 465.933 105.779 465.768C105.779 465.555 105.717 465.379 105.595 465.24C105.477 465.096 105.32 464.973 105.123 464.872C104.931 464.771 104.709 464.683 104.459 464.608C104.208 464.533 103.952 464.453 103.691 464.368C103.429 464.283 103.173 464.184 102.923 464.072C102.672 463.96 102.448 463.819 102.251 463.648C102.059 463.477 101.901 463.269 101.779 463.024C101.661 462.779 101.603 462.48 101.603 462.128C101.603 461.813 101.667 461.512 101.795 461.224C101.928 460.936 102.117 460.683 102.363 460.464C102.613 460.245 102.92 460.072 103.283 459.944C103.651 459.811 104.069 459.744 104.539 459.744C105.077 459.744 105.563 459.829 105.995 460C106.432 460.171 106.805 460.405 107.115 460.704L106.771 461.272ZM114.539 466C114.795 466.336 115.072 466.571 115.371 466.704C115.669 466.837 115.995 466.904 116.347 466.904C117.072 466.904 117.629 466.645 118.019 466.128C118.413 465.611 118.611 464.829 118.611 463.784C118.611 462.819 118.437 462.112 118.091 461.664C117.744 461.211 117.253 460.984 116.619 460.984C116.171 460.984 115.781 461.085 115.451 461.288C115.125 461.491 114.821 461.779 114.539 462.152V466ZM114.539 460.992C114.875 460.619 115.256 460.317 115.683 460.088C116.109 459.859 116.595 459.744 117.139 459.744C117.613 459.744 118.04 459.837 118.419 460.024C118.803 460.205 119.128 460.469 119.395 460.816C119.661 461.157 119.867 461.573 120.011 462.064C120.155 462.555 120.227 463.109 120.227 463.728C120.227 464.384 120.144 464.981 119.979 465.52C119.819 466.059 119.587 466.52 119.283 466.904C118.984 467.288 118.619 467.587 118.187 467.8C117.755 468.008 117.269 468.112 116.731 468.112C116.469 468.112 116.229 468.085 116.011 468.032C115.792 467.984 115.589 467.912 115.403 467.816C115.221 467.72 115.053 467.603 114.899 467.464C114.744 467.325 114.597 467.168 114.459 466.992L114.387 467.672C114.344 467.891 114.211 468 113.987 468H112.979V456.192H114.539V460.992ZM127.347 463.032C127.347 462.723 127.302 462.437 127.211 462.176C127.126 461.915 126.998 461.688 126.827 461.496C126.657 461.304 126.449 461.155 126.203 461.048C125.958 460.941 125.675 460.888 125.355 460.888C124.699 460.888 124.182 461.077 123.803 461.456C123.43 461.835 123.193 462.36 123.091 463.032H127.347ZM128.635 466.84C128.443 467.064 128.222 467.259 127.971 467.424C127.721 467.584 127.454 467.715 127.171 467.816C126.889 467.917 126.595 467.992 126.291 468.04C125.993 468.088 125.697 468.112 125.403 468.112C124.843 468.112 124.323 468.019 123.843 467.832C123.369 467.64 122.955 467.363 122.603 467C122.257 466.632 121.985 466.179 121.787 465.64C121.595 465.096 121.499 464.472 121.499 463.768C121.499 463.203 121.587 462.677 121.763 462.192C121.939 461.701 122.19 461.275 122.515 460.912C122.846 460.549 123.249 460.264 123.723 460.056C124.198 459.848 124.731 459.744 125.323 459.744C125.819 459.744 126.275 459.827 126.691 459.992C127.113 460.152 127.475 460.387 127.779 460.696C128.083 461.005 128.321 461.387 128.491 461.84C128.667 462.293 128.755 462.811 128.755 463.392C128.755 463.632 128.729 463.795 128.675 463.88C128.622 463.96 128.523 464 128.379 464H123.051C123.067 464.485 123.137 464.909 123.259 465.272C123.382 465.629 123.55 465.928 123.763 466.168C123.982 466.408 124.241 466.587 124.539 466.704C124.838 466.821 125.171 466.88 125.539 466.88C125.886 466.88 126.185 466.84 126.435 466.76C126.691 466.68 126.91 466.595 127.091 466.504C127.278 466.408 127.433 466.32 127.555 466.24C127.683 466.16 127.795 466.12 127.891 466.12C128.019 466.12 128.118 466.168 128.187 466.264L128.635 466.84ZM135.816 463.032C135.816 462.723 135.771 462.437 135.68 462.176C135.595 461.915 135.467 461.688 135.296 461.496C135.125 461.304 134.917 461.155 134.672 461.048C134.427 460.941 134.144 460.888 133.824 460.888C133.168 460.888 132.651 461.077 132.272 461.456C131.899 461.835 131.661 462.36 131.56 463.032H135.816ZM137.104 466.84C136.912 467.064 136.691 467.259 136.44 467.424C136.189 467.584 135.923 467.715 135.64 467.816C135.357 467.917 135.064 467.992 134.76 468.04C134.461 468.088 134.165 468.112 133.872 468.112C133.312 468.112 132.792 468.019 132.312 467.832C131.837 467.64 131.424 467.363 131.072 467C130.725 466.632 130.453 466.179 130.256 465.64C130.064 465.096 129.968 464.472 129.968 463.768C129.968 463.203 130.056 462.677 130.232 462.192C130.408 461.701 130.659 461.275 130.984 460.912C131.315 460.549 131.717 460.264 132.192 460.056C132.667 459.848 133.2 459.744 133.792 459.744C134.288 459.744 134.744 459.827 135.16 459.992C135.581 460.152 135.944 460.387 136.248 460.696C136.552 461.005 136.789 461.387 136.96 461.84C137.136 462.293 137.224 462.811 137.224 463.392C137.224 463.632 137.197 463.795 137.144 463.88C137.091 463.96 136.992 464 136.848 464H131.52C131.536 464.485 131.605 464.909 131.728 465.272C131.851 465.629 132.019 465.928 132.232 466.168C132.451 466.408 132.709 466.587 133.008 466.704C133.307 466.821 133.64 466.88 134.008 466.88C134.355 466.88 134.653 466.84 134.904 466.76C135.16 466.68 135.379 466.595 135.56 466.504C135.747 466.408 135.901 466.32 136.024 466.24C136.152 466.16 136.264 466.12 136.36 466.12C136.488 466.12 136.587 466.168 136.656 466.264L137.104 466.84ZM140.365 461C140.541 460.813 140.725 460.643 140.917 460.488C141.109 460.333 141.311 460.203 141.525 460.096C141.743 459.984 141.975 459.899 142.221 459.84C142.471 459.776 142.738 459.744 143.021 459.744C143.469 459.744 143.861 459.819 144.197 459.968C144.538 460.117 144.823 460.328 145.053 460.6C145.282 460.867 145.455 461.189 145.573 461.568C145.69 461.947 145.749 462.365 145.749 462.824V468H144.181V462.824C144.181 462.243 144.047 461.792 143.781 461.472C143.514 461.147 143.106 460.984 142.557 460.984C142.157 460.984 141.781 461.08 141.429 461.272C141.082 461.459 140.759 461.715 140.461 462.04V468H138.901V459.872H139.837C140.055 459.872 140.191 459.976 140.245 460.184L140.365 461ZM156.693 461.272C156.65 461.341 156.605 461.392 156.557 461.424C156.509 461.451 156.447 461.464 156.373 461.464C156.287 461.464 156.191 461.435 156.085 461.376C155.983 461.317 155.858 461.253 155.709 461.184C155.565 461.115 155.394 461.051 155.197 460.992C154.999 460.933 154.765 460.904 154.493 460.904C154.269 460.904 154.063 460.933 153.877 460.992C153.695 461.045 153.541 461.123 153.413 461.224C153.285 461.32 153.186 461.437 153.117 461.576C153.047 461.709 153.013 461.853 153.013 462.008C153.013 462.211 153.071 462.379 153.189 462.512C153.311 462.645 153.469 462.76 153.661 462.856C153.858 462.952 154.079 463.04 154.325 463.12C154.575 463.195 154.829 463.275 155.085 463.36C155.346 463.445 155.599 463.544 155.845 463.656C156.095 463.763 156.317 463.899 156.509 464.064C156.706 464.224 156.863 464.419 156.981 464.648C157.103 464.877 157.165 465.157 157.165 465.488C157.165 465.867 157.095 466.219 156.957 466.544C156.823 466.864 156.623 467.141 156.357 467.376C156.095 467.611 155.77 467.795 155.381 467.928C154.991 468.061 154.546 468.128 154.045 468.128C153.485 468.128 152.967 468.035 152.493 467.848C152.018 467.661 151.621 467.424 151.301 467.136L151.669 466.536C151.711 466.461 151.765 466.405 151.829 466.368C151.893 466.325 151.978 466.304 152.085 466.304C152.186 466.304 152.29 466.341 152.397 466.416C152.503 466.491 152.631 466.573 152.781 466.664C152.93 466.749 153.111 466.829 153.325 466.904C153.538 466.973 153.805 467.008 154.125 467.008C154.391 467.008 154.623 466.976 154.821 466.912C155.018 466.843 155.181 466.752 155.309 466.64C155.442 466.523 155.541 466.389 155.605 466.24C155.669 466.091 155.701 465.933 155.701 465.768C155.701 465.555 155.639 465.379 155.517 465.24C155.399 465.096 155.242 464.973 155.045 464.872C154.853 464.771 154.631 464.683 154.381 464.608C154.13 464.533 153.874 464.453 153.613 464.368C153.351 464.283 153.095 464.184 152.845 464.072C152.594 463.96 152.37 463.819 152.173 463.648C151.981 463.477 151.823 463.269 151.701 463.024C151.583 462.779 151.525 462.48 151.525 462.128C151.525 461.813 151.589 461.512 151.717 461.224C151.85 460.936 152.039 460.683 152.285 460.464C152.535 460.245 152.842 460.072 153.205 459.944C153.573 459.811 153.991 459.744 154.461 459.744C154.999 459.744 155.485 459.829 155.917 460C156.354 460.171 156.727 460.405 157.037 460.704L156.693 461.272ZM165.614 459.872V468H164.678C164.464 468 164.326 467.896 164.262 467.688L164.15 466.872C163.974 467.059 163.79 467.229 163.598 467.384C163.406 467.539 163.2 467.672 162.982 467.784C162.763 467.891 162.531 467.973 162.286 468.032C162.04 468.096 161.776 468.128 161.494 468.128C161.046 468.128 160.651 468.053 160.31 467.904C159.974 467.755 159.691 467.547 159.462 467.28C159.232 467.008 159.059 466.683 158.942 466.304C158.824 465.925 158.766 465.507 158.766 465.048V459.872H160.334V465.048C160.334 465.629 160.467 466.083 160.734 466.408C161 466.728 161.408 466.888 161.958 466.888C162.358 466.888 162.731 466.795 163.078 466.608C163.424 466.416 163.75 466.155 164.054 465.824V459.872H165.614ZM173.487 461.392C173.439 461.451 173.391 461.499 173.343 461.536C173.301 461.568 173.237 461.584 173.151 461.584C173.066 461.584 172.975 461.552 172.879 461.488C172.789 461.419 172.671 461.347 172.527 461.272C172.389 461.192 172.218 461.12 172.015 461.056C171.818 460.987 171.573 460.952 171.279 460.952C170.895 460.952 170.557 461.021 170.263 461.16C169.97 461.299 169.725 461.496 169.527 461.752C169.335 462.008 169.189 462.32 169.087 462.688C168.986 463.056 168.935 463.469 168.935 463.928C168.935 464.403 168.989 464.827 169.095 465.2C169.202 465.568 169.354 465.88 169.551 466.136C169.749 466.387 169.989 466.579 170.271 466.712C170.554 466.84 170.869 466.904 171.215 466.904C171.551 466.904 171.829 466.864 172.047 466.784C172.266 466.699 172.447 466.608 172.591 466.512C172.735 466.416 172.855 466.328 172.951 466.248C173.047 466.163 173.146 466.12 173.247 466.12C173.375 466.12 173.474 466.168 173.543 466.264L173.991 466.84C173.805 467.069 173.594 467.264 173.359 467.424C173.13 467.584 172.885 467.715 172.623 467.816C172.362 467.917 172.087 467.992 171.799 468.04C171.517 468.088 171.229 468.112 170.935 468.112C170.429 468.112 169.954 468.019 169.511 467.832C169.074 467.645 168.693 467.373 168.367 467.016C168.047 466.659 167.794 466.221 167.607 465.704C167.421 465.181 167.327 464.589 167.327 463.928C167.327 463.325 167.41 462.768 167.575 462.256C167.746 461.744 167.994 461.304 168.319 460.936C168.65 460.563 169.055 460.272 169.535 460.064C170.015 459.851 170.565 459.744 171.183 459.744C171.765 459.744 172.277 459.837 172.719 460.024C173.162 460.211 173.557 460.475 173.903 460.816L173.487 461.392ZM181.003 461.392C180.955 461.451 180.907 461.499 180.859 461.536C180.816 461.568 180.752 461.584 180.667 461.584C180.582 461.584 180.491 461.552 180.395 461.488C180.304 461.419 180.187 461.347 180.043 461.272C179.904 461.192 179.734 461.12 179.531 461.056C179.334 460.987 179.088 460.952 178.795 460.952C178.411 460.952 178.072 461.021 177.779 461.16C177.486 461.299 177.24 461.496 177.043 461.752C176.851 462.008 176.704 462.32 176.603 462.688C176.502 463.056 176.451 463.469 176.451 463.928C176.451 464.403 176.504 464.827 176.611 465.2C176.718 465.568 176.87 465.88 177.067 466.136C177.264 466.387 177.504 466.579 177.787 466.712C178.07 466.84 178.384 466.904 178.731 466.904C179.067 466.904 179.344 466.864 179.563 466.784C179.782 466.699 179.963 466.608 180.107 466.512C180.251 466.416 180.371 466.328 180.467 466.248C180.563 466.163 180.662 466.12 180.763 466.12C180.891 466.12 180.99 466.168 181.059 466.264L181.507 466.84C181.32 467.069 181.11 467.264 180.875 467.424C180.646 467.584 180.4 467.715 180.139 467.816C179.878 467.917 179.603 467.992 179.315 468.04C179.032 468.088 178.744 468.112 178.451 468.112C177.944 468.112 177.47 468.019 177.027 467.832C176.59 467.645 176.208 467.373 175.883 467.016C175.563 466.659 175.31 466.221 175.123 465.704C174.936 465.181 174.843 464.589 174.843 463.928C174.843 463.325 174.926 462.768 175.091 462.256C175.262 461.744 175.51 461.304 175.835 460.936C176.166 460.563 176.571 460.272 177.051 460.064C177.531 459.851 178.08 459.744 178.699 459.744C179.28 459.744 179.792 459.837 180.235 460.024C180.678 460.211 181.072 460.475 181.419 460.816L181.003 461.392ZM188.207 463.032C188.207 462.723 188.161 462.437 188.071 462.176C187.985 461.915 187.857 461.688 187.687 461.496C187.516 461.304 187.308 461.155 187.063 461.048C186.817 460.941 186.535 460.888 186.215 460.888C185.559 460.888 185.041 461.077 184.663 461.456C184.289 461.835 184.052 462.36 183.951 463.032H188.207ZM189.495 466.84C189.303 467.064 189.081 467.259 188.831 467.424C188.58 467.584 188.313 467.715 188.031 467.816C187.748 467.917 187.455 467.992 187.151 468.04C186.852 468.088 186.556 468.112 186.263 468.112C185.703 468.112 185.183 468.019 184.703 467.832C184.228 467.64 183.815 467.363 183.463 467C183.116 466.632 182.844 466.179 182.647 465.64C182.455 465.096 182.359 464.472 182.359 463.768C182.359 463.203 182.447 462.677 182.623 462.192C182.799 461.701 183.049 461.275 183.375 460.912C183.705 460.549 184.108 460.264 184.583 460.056C185.057 459.848 185.591 459.744 186.183 459.744C186.679 459.744 187.135 459.827 187.551 459.992C187.972 460.152 188.335 460.387 188.639 460.696C188.943 461.005 189.18 461.387 189.351 461.84C189.527 462.293 189.615 462.811 189.615 463.392C189.615 463.632 189.588 463.795 189.535 463.88C189.481 463.96 189.383 464 189.239 464H183.911C183.927 464.485 183.996 464.909 184.119 465.272C184.241 465.629 184.409 465.928 184.623 466.168C184.841 466.408 185.1 466.587 185.399 466.704C185.697 466.821 186.031 466.88 186.399 466.88C186.745 466.88 187.044 466.84 187.295 466.76C187.551 466.68 187.769 466.595 187.951 466.504C188.137 466.408 188.292 466.32 188.415 466.24C188.543 466.16 188.655 466.12 188.751 466.12C188.879 466.12 188.977 466.168 189.047 466.264L189.495 466.84ZM196.083 461.272C196.041 461.341 195.995 461.392 195.947 461.424C195.899 461.451 195.838 461.464 195.763 461.464C195.678 461.464 195.582 461.435 195.475 461.376C195.374 461.317 195.249 461.253 195.099 461.184C194.955 461.115 194.785 461.051 194.587 460.992C194.39 460.933 194.155 460.904 193.883 460.904C193.659 460.904 193.454 460.933 193.267 460.992C193.086 461.045 192.931 461.123 192.803 461.224C192.675 461.32 192.577 461.437 192.507 461.576C192.438 461.709 192.403 461.853 192.403 462.008C192.403 462.211 192.462 462.379 192.579 462.512C192.702 462.645 192.859 462.76 193.051 462.856C193.249 462.952 193.47 463.04 193.715 463.12C193.966 463.195 194.219 463.275 194.475 463.36C194.737 463.445 194.99 463.544 195.235 463.656C195.486 463.763 195.707 463.899 195.899 464.064C196.097 464.224 196.254 464.419 196.371 464.648C196.494 464.877 196.555 465.157 196.555 465.488C196.555 465.867 196.486 466.219 196.347 466.544C196.214 466.864 196.014 467.141 195.747 467.376C195.486 467.611 195.161 467.795 194.771 467.928C194.382 468.061 193.937 468.128 193.435 468.128C192.875 468.128 192.358 468.035 191.883 467.848C191.409 467.661 191.011 467.424 190.691 467.136L191.059 466.536C191.102 466.461 191.155 466.405 191.219 466.368C191.283 466.325 191.369 466.304 191.475 466.304C191.577 466.304 191.681 466.341 191.787 466.416C191.894 466.491 192.022 466.573 192.171 466.664C192.321 466.749 192.502 466.829 192.715 466.904C192.929 466.973 193.195 467.008 193.515 467.008C193.782 467.008 194.014 466.976 194.211 466.912C194.409 466.843 194.571 466.752 194.699 466.64C194.833 466.523 194.931 466.389 194.995 466.24C195.059 466.091 195.091 465.933 195.091 465.768C195.091 465.555 195.03 465.379 194.907 465.24C194.79 465.096 194.633 464.973 194.435 464.872C194.243 464.771 194.022 464.683 193.771 464.608C193.521 464.533 193.265 464.453 193.003 464.368C192.742 464.283 192.486 464.184 192.235 464.072C191.985 463.96 191.761 463.819 191.563 463.648C191.371 463.477 191.214 463.269 191.091 463.024C190.974 462.779 190.915 462.48 190.915 462.128C190.915 461.813 190.979 461.512 191.107 461.224C191.241 460.936 191.43 460.683 191.675 460.464C191.926 460.245 192.233 460.072 192.595 459.944C192.963 459.811 193.382 459.744 193.851 459.744C194.39 459.744 194.875 459.829 195.307 460C195.745 460.171 196.118 460.405 196.427 460.704L196.083 461.272ZM203.036 461.272C202.994 461.341 202.948 461.392 202.9 461.424C202.852 461.451 202.791 461.464 202.716 461.464C202.631 461.464 202.535 461.435 202.428 461.376C202.327 461.317 202.202 461.253 202.052 461.184C201.908 461.115 201.738 461.051 201.54 460.992C201.343 460.933 201.108 460.904 200.836 460.904C200.612 460.904 200.407 460.933 200.22 460.992C200.039 461.045 199.884 461.123 199.756 461.224C199.628 461.32 199.53 461.437 199.46 461.576C199.391 461.709 199.356 461.853 199.356 462.008C199.356 462.211 199.415 462.379 199.532 462.512C199.655 462.645 199.812 462.76 200.004 462.856C200.202 462.952 200.423 463.04 200.668 463.12C200.919 463.195 201.172 463.275 201.428 463.36C201.69 463.445 201.943 463.544 202.188 463.656C202.439 463.763 202.66 463.899 202.852 464.064C203.05 464.224 203.207 464.419 203.324 464.648C203.447 464.877 203.508 465.157 203.508 465.488C203.508 465.867 203.439 466.219 203.3 466.544C203.167 466.864 202.967 467.141 202.7 467.376C202.439 467.611 202.114 467.795 201.724 467.928C201.335 468.061 200.89 468.128 200.388 468.128C199.828 468.128 199.311 468.035 198.836 467.848C198.362 467.661 197.964 467.424 197.644 467.136L198.012 466.536C198.055 466.461 198.108 466.405 198.172 466.368C198.236 466.325 198.322 466.304 198.428 466.304C198.53 466.304 198.634 466.341 198.74 466.416C198.847 466.491 198.975 466.573 199.124 466.664C199.274 466.749 199.455 466.829 199.668 466.904C199.882 466.973 200.148 467.008 200.468 467.008C200.735 467.008 200.967 466.976 201.164 466.912C201.362 466.843 201.524 466.752 201.652 466.64C201.786 466.523 201.884 466.389 201.948 466.24C202.012 466.091 202.044 465.933 202.044 465.768C202.044 465.555 201.983 465.379 201.86 465.24C201.743 465.096 201.586 464.973 201.388 464.872C201.196 464.771 200.975 464.683 200.724 464.608C200.474 464.533 200.218 464.453 199.956 464.368C199.695 464.283 199.439 464.184 199.188 464.072C198.938 463.96 198.714 463.819 198.516 463.648C198.324 463.477 198.167 463.269 198.044 463.024C197.927 462.779 197.868 462.48 197.868 462.128C197.868 461.813 197.932 461.512 198.06 461.224C198.194 460.936 198.383 460.683 198.628 460.464C198.879 460.245 199.186 460.072 199.548 459.944C199.916 459.811 200.335 459.744 200.804 459.744C201.343 459.744 201.828 459.829 202.26 460C202.698 460.171 203.071 460.405 203.38 460.704L203.036 461.272ZM205.734 468V461.152L204.886 461.048C204.763 461.021 204.662 460.979 204.582 460.92C204.507 460.856 204.47 460.765 204.47 460.648V460H205.734V459.264C205.734 458.8 205.8 458.387 205.934 458.024C206.067 457.661 206.256 457.355 206.502 457.104C206.752 456.848 207.051 456.656 207.398 456.528C207.75 456.395 208.144 456.328 208.582 456.328C208.95 456.328 209.288 456.381 209.598 456.488L209.566 457.272C209.56 457.341 209.539 457.395 209.502 457.432C209.464 457.464 209.414 457.488 209.35 457.504C209.291 457.52 209.216 457.531 209.126 457.536C209.04 457.536 208.947 457.536 208.846 457.536C208.606 457.536 208.387 457.565 208.19 457.624C207.992 457.683 207.824 457.781 207.686 457.92C207.547 458.059 207.44 458.243 207.366 458.472C207.291 458.696 207.254 458.976 207.254 459.312V460H209.534V461.136H207.302V468H205.734ZM217.598 459.872V468H216.662C216.449 468 216.31 467.896 216.246 467.688L216.134 466.872C215.958 467.059 215.774 467.229 215.582 467.384C215.39 467.539 215.185 467.672 214.966 467.784C214.748 467.891 214.516 467.973 214.27 468.032C214.025 468.096 213.761 468.128 213.478 468.128C213.03 468.128 212.636 468.053 212.294 467.904C211.958 467.755 211.676 467.547 211.446 467.28C211.217 467.008 211.044 466.683 210.926 466.304C210.809 465.925 210.75 465.507 210.75 465.048V459.872H212.318V465.048C212.318 465.629 212.452 466.083 212.718 466.408C212.985 466.728 213.393 466.888 213.942 466.888C214.342 466.888 214.716 466.795 215.062 466.608C215.409 466.416 215.734 466.155 216.038 465.824V459.872H217.598ZM221.376 456.192V468H219.808V456.192H221.376ZM225.204 456.192V468H223.636V456.192H225.204ZM234.536 459.872L230.024 470.36C229.976 470.477 229.912 470.568 229.832 470.632C229.752 470.696 229.635 470.728 229.48 470.728H228.32L229.808 467.488L226.472 459.872H227.832C227.965 459.872 228.069 459.904 228.144 459.968C228.219 460.032 228.272 460.104 228.304 460.184L230.368 465.064C230.411 465.187 230.451 465.312 230.488 465.44C230.531 465.563 230.565 465.685 230.592 465.808C230.629 465.68 230.669 465.555 230.712 465.432C230.755 465.304 230.8 465.179 230.848 465.056L232.84 460.184C232.877 460.093 232.936 460.019 233.016 459.96C233.096 459.901 233.187 459.872 233.288 459.872H234.536ZM245.081 461.392C245.033 461.451 244.985 461.499 244.937 461.536C244.894 461.568 244.83 461.584 244.745 461.584C244.66 461.584 244.569 461.552 244.473 461.488C244.382 461.419 244.265 461.347 244.121 461.272C243.982 461.192 243.812 461.12 243.609 461.056C243.412 460.987 243.166 460.952 242.873 460.952C242.489 460.952 242.15 461.021 241.857 461.16C241.564 461.299 241.318 461.496 241.121 461.752C240.929 462.008 240.782 462.32 240.681 462.688C240.58 463.056 240.529 463.469 240.529 463.928C240.529 464.403 240.582 464.827 240.689 465.2C240.796 465.568 240.948 465.88 241.145 466.136C241.342 466.387 241.582 466.579 241.865 466.712C242.148 466.84 242.462 466.904 242.809 466.904C243.145 466.904 243.422 466.864 243.641 466.784C243.86 466.699 244.041 466.608 244.185 466.512C244.329 466.416 244.449 466.328 244.545 466.248C244.641 466.163 244.74 466.12 244.841 466.12C244.969 466.12 245.068 466.168 245.137 466.264L245.585 466.84C245.398 467.069 245.188 467.264 244.953 467.424C244.724 467.584 244.478 467.715 244.217 467.816C243.956 467.917 243.681 467.992 243.393 468.04C243.11 468.088 242.822 468.112 242.529 468.112C242.022 468.112 241.548 468.019 241.105 467.832C240.668 467.645 240.286 467.373 239.961 467.016C239.641 466.659 239.388 466.221 239.201 465.704C239.014 465.181 238.921 464.589 238.921 463.928C238.921 463.325 239.004 462.768 239.169 462.256C239.34 461.744 239.588 461.304 239.913 460.936C240.244 460.563 240.649 460.272 241.129 460.064C241.609 459.851 242.158 459.744 242.777 459.744C243.358 459.744 243.87 459.837 244.313 460.024C244.756 460.211 245.15 460.475 245.497 460.816L245.081 461.392ZM248.513 461.432C248.775 460.899 249.089 460.48 249.457 460.176C249.825 459.872 250.268 459.72 250.785 459.72C250.961 459.72 251.127 459.741 251.281 459.784C251.441 459.821 251.58 459.88 251.697 459.96L251.593 461.136C251.556 461.28 251.468 461.352 251.329 461.352C251.255 461.352 251.143 461.339 250.993 461.312C250.844 461.28 250.684 461.264 250.513 461.264C250.263 461.264 250.041 461.301 249.849 461.376C249.657 461.445 249.484 461.552 249.329 461.696C249.18 461.835 249.047 462.008 248.929 462.216C248.812 462.419 248.703 462.651 248.601 462.912V468H247.041V459.872H247.937C248.108 459.872 248.223 459.904 248.281 459.968C248.345 460.027 248.391 460.133 248.417 460.288L248.513 461.432ZM257.988 463.032C257.988 462.723 257.942 462.437 257.852 462.176C257.766 461.915 257.638 461.688 257.468 461.496C257.297 461.304 257.089 461.155 256.844 461.048C256.598 460.941 256.316 460.888 255.996 460.888C255.34 460.888 254.822 461.077 254.444 461.456C254.07 461.835 253.833 462.36 253.732 463.032H257.988ZM259.276 466.84C259.084 467.064 258.862 467.259 258.612 467.424C258.361 467.584 258.094 467.715 257.812 467.816C257.529 467.917 257.236 467.992 256.932 468.04C256.633 468.088 256.337 468.112 256.044 468.112C255.484 468.112 254.964 468.019 254.484 467.832C254.009 467.64 253.596 467.363 253.244 467C252.897 466.632 252.625 466.179 252.428 465.64C252.236 465.096 252.14 464.472 252.14 463.768C252.14 463.203 252.228 462.677 252.404 462.192C252.58 461.701 252.83 461.275 253.156 460.912C253.486 460.549 253.889 460.264 254.364 460.056C254.838 459.848 255.372 459.744 255.964 459.744C256.46 459.744 256.916 459.827 257.332 459.992C257.753 460.152 258.116 460.387 258.42 460.696C258.724 461.005 258.961 461.387 259.132 461.84C259.308 462.293 259.396 462.811 259.396 463.392C259.396 463.632 259.369 463.795 259.316 463.88C259.262 463.96 259.164 464 259.02 464H253.692C253.708 464.485 253.777 464.909 253.9 465.272C254.022 465.629 254.19 465.928 254.404 466.168C254.622 466.408 254.881 466.587 255.18 466.704C255.478 466.821 255.812 466.88 256.18 466.88C256.526 466.88 256.825 466.84 257.076 466.76C257.332 466.68 257.55 466.595 257.732 466.504C257.918 466.408 258.073 466.32 258.196 466.24C258.324 466.16 258.436 466.12 258.532 466.12C258.66 466.12 258.758 466.168 258.828 466.264L259.276 466.84ZM265.441 464.392C264.806 464.413 264.267 464.464 263.825 464.544C263.382 464.619 263.022 464.72 262.745 464.848C262.467 464.976 262.267 465.128 262.145 465.304C262.022 465.475 261.961 465.667 261.961 465.88C261.961 466.083 261.993 466.259 262.057 466.408C262.126 466.552 262.217 466.672 262.329 466.768C262.446 466.859 262.582 466.925 262.737 466.968C262.891 467.011 263.059 467.032 263.241 467.032C263.481 467.032 263.699 467.008 263.897 466.96C264.099 466.912 264.289 466.845 264.465 466.76C264.641 466.669 264.809 466.56 264.969 466.432C265.129 466.304 265.286 466.157 265.441 465.992V464.392ZM260.865 461.008C261.318 460.576 261.809 460.253 262.337 460.04C262.87 459.827 263.454 459.72 264.089 459.72C264.553 459.72 264.963 459.797 265.321 459.952C265.678 460.101 265.979 460.312 266.225 460.584C266.47 460.856 266.654 461.181 266.777 461.56C266.905 461.939 266.969 462.357 266.969 462.816V468H266.273C266.118 468 266.001 467.976 265.921 467.928C265.841 467.875 265.777 467.779 265.729 467.64L265.561 466.928C265.353 467.12 265.147 467.291 264.945 467.44C264.742 467.584 264.529 467.709 264.305 467.816C264.086 467.917 263.851 467.995 263.601 468.048C263.35 468.101 263.073 468.128 262.769 468.128C262.449 468.128 262.147 468.085 261.865 468C261.587 467.909 261.345 467.773 261.137 467.592C260.929 467.411 260.763 467.184 260.641 466.912C260.523 466.64 260.465 466.323 260.465 465.96C260.465 465.64 260.55 465.333 260.721 465.04C260.897 464.741 261.179 464.475 261.569 464.24C261.963 464.005 262.475 463.813 263.105 463.664C263.739 463.515 264.518 463.429 265.441 463.408V462.816C265.441 462.203 265.31 461.744 265.049 461.44C264.787 461.136 264.403 460.984 263.897 460.984C263.555 460.984 263.267 461.027 263.033 461.112C262.803 461.197 262.603 461.293 262.433 461.4C262.267 461.501 262.121 461.595 261.993 461.68C261.87 461.765 261.742 461.808 261.609 461.808C261.502 461.808 261.409 461.779 261.329 461.72C261.254 461.661 261.193 461.592 261.145 461.512L260.865 461.008ZM271.492 468.128C270.836 468.128 270.329 467.944 269.972 467.576C269.62 467.208 269.444 466.683 269.444 466V461.136H268.5C268.409 461.136 268.332 461.109 268.268 461.056C268.209 460.997 268.18 460.912 268.18 460.8V460.168L269.5 459.984L269.852 457.56C269.873 457.469 269.913 457.4 269.972 457.352C270.036 457.299 270.116 457.272 270.212 457.272H271.004V460H273.308V461.136H271.004V465.896C271.004 466.216 271.081 466.456 271.236 466.616C271.396 466.771 271.598 466.848 271.844 466.848C271.988 466.848 272.11 466.829 272.212 466.792C272.318 466.755 272.409 466.715 272.484 466.672C272.558 466.624 272.622 466.581 272.676 466.544C272.729 466.507 272.777 466.488 272.82 466.488C272.873 466.488 272.913 466.501 272.94 466.528C272.972 466.549 273.004 466.587 273.036 466.64L273.5 467.392C273.244 467.627 272.94 467.808 272.588 467.936C272.236 468.064 271.87 468.128 271.492 468.128ZM280.082 463.032C280.082 462.723 280.036 462.437 279.946 462.176C279.86 461.915 279.732 461.688 279.562 461.496C279.391 461.304 279.183 461.155 278.938 461.048C278.692 460.941 278.41 460.888 278.09 460.888C277.434 460.888 276.916 461.077 276.538 461.456C276.164 461.835 275.927 462.36 275.826 463.032H280.082ZM281.37 466.84C281.178 467.064 280.956 467.259 280.706 467.424C280.455 467.584 280.188 467.715 279.906 467.816C279.623 467.917 279.33 467.992 279.026 468.04C278.727 468.088 278.431 468.112 278.138 468.112C277.578 468.112 277.058 468.019 276.578 467.832C276.103 467.64 275.69 467.363 275.338 467C274.991 466.632 274.719 466.179 274.522 465.64C274.33 465.096 274.234 464.472 274.234 463.768C274.234 463.203 274.322 462.677 274.498 462.192C274.674 461.701 274.924 461.275 275.25 460.912C275.58 460.549 275.983 460.264 276.458 460.056C276.932 459.848 277.466 459.744 278.058 459.744C278.554 459.744 279.01 459.827 279.426 459.992C279.847 460.152 280.21 460.387 280.514 460.696C280.818 461.005 281.055 461.387 281.226 461.84C281.402 462.293 281.49 462.811 281.49 463.392C281.49 463.632 281.463 463.795 281.41 463.88C281.356 463.96 281.258 464 281.114 464H275.786C275.802 464.485 275.871 464.909 275.994 465.272C276.116 465.629 276.284 465.928 276.498 466.168C276.716 466.408 276.975 466.587 277.274 466.704C277.572 466.821 277.906 466.88 278.274 466.88C278.62 466.88 278.919 466.84 279.17 466.76C279.426 466.68 279.644 466.595 279.826 466.504C280.012 466.408 280.167 466.32 280.29 466.24C280.418 466.16 280.53 466.12 280.626 466.12C280.754 466.12 280.852 466.168 280.922 466.264L281.37 466.84ZM288.406 461.84C288.15 461.504 287.873 461.269 287.574 461.136C287.281 461.003 286.95 460.936 286.582 460.936C285.868 460.936 285.313 461.195 284.918 461.712C284.529 462.224 284.334 462.973 284.334 463.96C284.334 464.477 284.377 464.92 284.462 465.288C284.553 465.651 284.681 465.949 284.846 466.184C285.017 466.413 285.225 466.584 285.47 466.696C285.716 466.803 285.993 466.856 286.302 466.856C286.756 466.856 287.148 466.755 287.478 466.552C287.809 466.349 288.118 466.064 288.406 465.696V461.84ZM289.974 456.192V468H289.03C288.812 468 288.676 467.896 288.622 467.688L288.486 466.752C288.14 467.163 287.745 467.493 287.302 467.744C286.865 467.989 286.358 468.112 285.782 468.112C285.318 468.112 284.897 468.021 284.518 467.84C284.145 467.659 283.825 467.395 283.558 467.048C283.292 466.696 283.086 466.261 282.942 465.744C282.798 465.227 282.726 464.632 282.726 463.96C282.726 463.357 282.806 462.797 282.966 462.28C283.126 461.763 283.358 461.315 283.662 460.936C283.966 460.557 284.334 460.261 284.766 460.048C285.198 459.829 285.686 459.72 286.23 459.72C286.721 459.72 287.137 459.8 287.478 459.96C287.825 460.12 288.134 460.347 288.406 460.64V456.192H289.974Z" fill="#E2E9FD"/>
<path d="M153.172 367.804C153.076 367.972 152.972 368.096 152.86 368.176C152.756 368.248 152.624 368.284 152.464 368.284C152.296 368.284 152.112 368.224 151.912 368.104C151.72 367.976 151.488 367.836 151.216 367.684C150.944 367.532 150.624 367.396 150.256 367.276C149.896 367.148 149.468 367.084 148.972 367.084C148.524 367.084 148.132 367.14 147.796 367.252C147.46 367.356 147.176 367.504 146.944 367.696C146.72 367.888 146.552 368.12 146.44 368.392C146.328 368.656 146.272 368.948 146.272 369.268C146.272 369.676 146.384 370.016 146.608 370.288C146.84 370.56 147.144 370.792 147.52 370.984C147.896 371.176 148.324 371.348 148.804 371.5C149.284 371.652 149.776 371.816 150.28 371.992C150.784 372.16 151.276 372.36 151.756 372.592C152.236 372.816 152.664 373.104 153.04 373.456C153.416 373.8 153.716 374.224 153.94 374.728C154.172 375.232 154.288 375.844 154.288 376.564C154.288 377.348 154.152 378.084 153.88 378.772C153.616 379.452 153.224 380.048 152.704 380.56C152.192 381.064 151.564 381.464 150.82 381.76C150.076 382.048 149.224 382.192 148.264 382.192C147.712 382.192 147.168 382.136 146.632 382.024C146.096 381.92 145.58 381.768 145.084 381.568C144.596 381.368 144.136 381.128 143.704 380.848C143.272 380.568 142.888 380.256 142.552 379.912L143.5 378.364C143.58 378.252 143.684 378.16 143.812 378.088C143.94 378.008 144.076 377.968 144.22 377.968C144.42 377.968 144.636 378.052 144.868 378.22C145.1 378.38 145.376 378.56 145.696 378.76C146.016 378.96 146.388 379.144 146.812 379.312C147.244 379.472 147.76 379.552 148.36 379.552C149.28 379.552 149.992 379.336 150.496 378.904C151 378.464 151.252 377.836 151.252 377.02C151.252 376.564 151.136 376.192 150.904 375.904C150.68 375.616 150.38 375.376 150.004 375.184C149.628 374.984 149.2 374.816 148.72 374.68C148.24 374.544 147.752 374.396 147.256 374.236C146.76 374.076 146.272 373.884 145.792 373.66C145.312 373.436 144.884 373.144 144.508 372.784C144.132 372.424 143.828 371.976 143.596 371.44C143.372 370.896 143.26 370.228 143.26 369.436C143.26 368.804 143.384 368.188 143.632 367.588C143.888 366.988 144.256 366.456 144.736 365.992C145.216 365.528 145.808 365.156 146.512 364.876C147.216 364.596 148.024 364.456 148.936 364.456C149.96 364.456 150.904 364.616 151.768 364.936C152.632 365.256 153.368 365.704 153.976 366.28L153.172 367.804ZM167.033 369.688V382H165.221C164.829 382 164.581 381.82 164.477 381.46L164.273 380.476C163.769 380.988 163.213 381.404 162.605 381.724C161.997 382.036 161.281 382.192 160.457 382.192C159.785 382.192 159.189 382.08 158.669 381.856C158.157 381.624 157.725 381.3 157.373 380.884C157.021 380.468 156.753 379.976 156.569 379.408C156.393 378.832 156.305 378.2 156.305 377.512V369.688H159.269V377.512C159.269 378.264 159.441 378.848 159.785 379.264C160.137 379.672 160.661 379.876 161.357 379.876C161.869 379.876 162.349 379.764 162.797 379.54C163.245 379.308 163.669 378.992 164.069 378.592V369.688H167.033ZM178.792 372.292C178.704 372.404 178.616 372.492 178.528 372.556C178.448 372.62 178.328 372.652 178.168 372.652C178.016 372.652 177.868 372.608 177.724 372.52C177.58 372.424 177.408 372.32 177.208 372.208C177.008 372.088 176.768 371.984 176.488 371.896C176.216 371.8 175.876 371.752 175.468 371.752C174.948 371.752 174.492 371.848 174.1 372.04C173.708 372.224 173.38 372.492 173.116 372.844C172.86 373.196 172.668 373.624 172.54 374.128C172.412 374.624 172.348 375.188 172.348 375.82C172.348 376.476 172.416 377.06 172.552 377.572C172.696 378.084 172.9 378.516 173.164 378.868C173.428 379.212 173.748 379.476 174.124 379.66C174.5 379.836 174.924 379.924 175.396 379.924C175.868 379.924 176.248 379.868 176.536 379.756C176.832 379.636 177.08 379.508 177.28 379.372C177.48 379.228 177.652 379.1 177.796 378.988C177.948 378.868 178.116 378.808 178.3 378.808C178.54 378.808 178.72 378.9 178.84 379.084L179.692 380.164C179.364 380.548 179.008 380.872 178.624 381.136C178.24 381.392 177.84 381.6 177.424 381.76C177.016 381.912 176.592 382.02 176.152 382.084C175.72 382.148 175.288 382.18 174.856 382.18C174.096 382.18 173.38 382.04 172.708 381.76C172.036 381.472 171.448 381.056 170.944 380.512C170.44 379.968 170.04 379.304 169.744 378.52C169.456 377.728 169.312 376.828 169.312 375.82C169.312 374.916 169.44 374.08 169.696 373.312C169.96 372.536 170.344 371.868 170.848 371.308C171.352 370.74 171.976 370.296 172.72 369.976C173.464 369.656 174.32 369.496 175.288 369.496C176.208 369.496 177.012 369.644 177.7 369.94C178.396 370.236 179.02 370.66 179.572 371.212L178.792 372.292ZM190.159 372.292C190.071 372.404 189.983 372.492 189.895 372.556C189.815 372.62 189.695 372.652 189.535 372.652C189.383 372.652 189.235 372.608 189.091 372.52C188.947 372.424 188.775 372.32 188.575 372.208C188.375 372.088 188.135 371.984 187.855 371.896C187.583 371.8 187.243 371.752 186.835 371.752C186.315 371.752 185.859 371.848 185.467 372.04C185.075 372.224 184.747 372.492 184.483 372.844C184.227 373.196 184.035 373.624 183.907 374.128C183.779 374.624 183.715 375.188 183.715 375.82C183.715 376.476 183.783 377.06 183.919 377.572C184.063 378.084 184.267 378.516 184.531 378.868C184.795 379.212 185.115 379.476 185.491 379.66C185.867 379.836 186.291 379.924 186.763 379.924C187.235 379.924 187.615 379.868 187.903 379.756C188.199 379.636 188.447 379.508 188.647 379.372C188.847 379.228 189.019 379.1 189.163 378.988C189.315 378.868 189.483 378.808 189.667 378.808C189.907 378.808 190.087 378.9 190.207 379.084L191.059 380.164C190.731 380.548 190.375 380.872 189.991 381.136C189.607 381.392 189.207 381.6 188.791 381.76C188.383 381.912 187.959 382.02 187.519 382.084C187.087 382.148 186.655 382.18 186.223 382.18C185.463 382.18 184.747 382.04 184.075 381.76C183.403 381.472 182.815 381.056 182.311 380.512C181.807 379.968 181.407 379.304 181.111 378.52C180.823 377.728 180.679 376.828 180.679 375.82C180.679 374.916 180.807 374.08 181.063 373.312C181.327 372.536 181.711 371.868 182.215 371.308C182.719 370.74 183.343 370.296 184.087 369.976C184.831 369.656 185.687 369.496 186.655 369.496C187.575 369.496 188.379 369.644 189.067 369.94C189.763 370.236 190.387 370.66 190.939 371.212L190.159 372.292ZM200.638 374.428C200.638 374.044 200.582 373.684 200.47 373.348C200.366 373.004 200.206 372.704 199.99 372.448C199.774 372.192 199.498 371.992 199.162 371.848C198.834 371.696 198.45 371.62 198.01 371.62C197.154 371.62 196.478 371.864 195.982 372.352C195.494 372.84 195.182 373.532 195.046 374.428H200.638ZM194.986 376.216C195.034 376.848 195.146 377.396 195.322 377.86C195.498 378.316 195.73 378.696 196.018 379C196.306 379.296 196.646 379.52 197.038 379.672C197.438 379.816 197.878 379.888 198.358 379.888C198.838 379.888 199.25 379.832 199.594 379.72C199.946 379.608 200.25 379.484 200.506 379.348C200.77 379.212 200.998 379.088 201.19 378.976C201.39 378.864 201.582 378.808 201.766 378.808C202.014 378.808 202.198 378.9 202.318 379.084L203.17 380.164C202.842 380.548 202.474 380.872 202.066 381.136C201.658 381.392 201.23 381.6 200.782 381.76C200.342 381.912 199.89 382.02 199.426 382.084C198.97 382.148 198.526 382.18 198.094 382.18C197.238 382.18 196.442 382.04 195.706 381.76C194.97 381.472 194.33 381.052 193.786 380.5C193.242 379.94 192.814 379.252 192.502 378.436C192.19 377.612 192.034 376.66 192.034 375.58C192.034 374.74 192.17 373.952 192.442 373.216C192.714 372.472 193.102 371.828 193.606 371.284C194.118 370.732 194.738 370.296 195.466 369.976C196.202 369.656 197.03 369.496 197.95 369.496C198.726 369.496 199.442 369.62 200.098 369.868C200.754 370.116 201.318 370.48 201.79 370.96C202.262 371.432 202.63 372.016 202.894 372.712C203.166 373.4 203.302 374.188 203.302 375.076C203.302 375.524 203.254 375.828 203.158 375.988C203.062 376.14 202.878 376.216 202.606 376.216H194.986ZM213.039 372.088C212.959 372.216 212.875 372.308 212.787 372.364C212.699 372.412 212.587 372.436 212.451 372.436C212.307 372.436 212.151 372.396 211.983 372.316C211.823 372.236 211.635 372.148 211.419 372.052C211.203 371.948 210.955 371.856 210.674 371.776C210.403 371.696 210.079 371.656 209.703 371.656C209.119 371.656 208.659 371.78 208.323 372.028C207.995 372.276 207.831 372.6 207.831 373C207.831 373.264 207.915 373.488 208.083 373.672C208.259 373.848 208.487 374.004 208.767 374.14C209.055 374.276 209.379 374.4 209.739 374.512C210.099 374.616 210.463 374.732 210.831 374.86C211.207 374.988 211.575 375.136 211.935 375.304C212.295 375.464 212.615 375.672 212.895 375.928C213.183 376.176 213.411 376.476 213.579 376.828C213.755 377.18 213.843 377.604 213.843 378.1C213.843 378.692 213.735 379.24 213.519 379.744C213.311 380.24 212.999 380.672 212.583 381.04C212.167 381.4 211.651 381.684 211.035 381.892C210.427 382.092 209.723 382.192 208.923 382.192C208.499 382.192 208.083 382.152 207.675 382.072C207.275 382 206.887 381.896 206.511 381.76C206.143 381.624 205.799 381.464 205.479 381.28C205.167 381.096 204.891 380.896 204.651 380.68L205.335 379.552C205.423 379.416 205.527 379.312 205.646 379.24C205.766 379.168 205.919 379.132 206.103 379.132C206.287 379.132 206.459 379.184 206.619 379.288C206.787 379.392 206.979 379.504 207.195 379.624C207.411 379.744 207.663 379.856 207.951 379.96C208.247 380.064 208.619 380.116 209.067 380.116C209.419 380.116 209.719 380.076 209.967 379.996C210.223 379.908 210.431 379.796 210.591 379.66C210.759 379.524 210.878 379.368 210.951 379.192C211.031 379.008 211.071 378.82 211.071 378.628C211.071 378.34 210.983 378.104 210.807 377.92C210.639 377.736 210.411 377.576 210.122 377.44C209.843 377.304 209.519 377.184 209.151 377.08C208.791 376.968 208.419 376.848 208.035 376.72C207.659 376.592 207.287 376.444 206.919 376.276C206.559 376.1 206.235 375.88 205.947 375.616C205.667 375.352 205.439 375.028 205.263 374.644C205.095 374.26 205.011 373.796 205.011 373.252C205.011 372.748 205.111 372.268 205.311 371.812C205.511 371.356 205.803 370.96 206.187 370.624C206.579 370.28 207.063 370.008 207.639 369.808C208.223 369.6 208.895 369.496 209.655 369.496C210.503 369.496 211.275 369.636 211.971 369.916C212.667 370.196 213.247 370.564 213.711 371.02L213.039 372.088ZM223.585 372.088C223.505 372.216 223.421 372.308 223.333 372.364C223.245 372.412 223.133 372.436 222.997 372.436C222.853 372.436 222.697 372.396 222.529 372.316C222.369 372.236 222.181 372.148 221.965 372.052C221.749 371.948 221.501 371.856 221.221 371.776C220.949 371.696 220.625 371.656 220.249 371.656C219.665 371.656 219.205 371.78 218.869 372.028C218.541 372.276 218.377 372.6 218.377 373C218.377 373.264 218.461 373.488 218.629 373.672C218.805 373.848 219.033 374.004 219.313 374.14C219.601 374.276 219.925 374.4 220.285 374.512C220.645 374.616 221.009 374.732 221.377 374.86C221.753 374.988 222.121 375.136 222.481 375.304C222.841 375.464 223.161 375.672 223.441 375.928C223.729 376.176 223.957 376.476 224.125 376.828C224.301 377.18 224.389 377.604 224.389 378.1C224.389 378.692 224.281 379.24 224.065 379.744C223.857 380.24 223.545 380.672 223.129 381.04C222.713 381.4 222.197 381.684 221.581 381.892C220.973 382.092 220.269 382.192 219.469 382.192C219.045 382.192 218.629 382.152 218.221 382.072C217.821 382 217.433 381.896 217.057 381.76C216.689 381.624 216.345 381.464 216.025 381.28C215.713 381.096 215.437 380.896 215.197 380.68L215.881 379.552C215.969 379.416 216.073 379.312 216.193 379.24C216.313 379.168 216.465 379.132 216.649 379.132C216.833 379.132 217.005 379.184 217.165 379.288C217.333 379.392 217.525 379.504 217.741 379.624C217.957 379.744 218.209 379.856 218.497 379.96C218.793 380.064 219.165 380.116 219.613 380.116C219.965 380.116 220.265 380.076 220.513 379.996C220.769 379.908 220.977 379.796 221.137 379.66C221.305 379.524 221.425 379.368 221.497 379.192C221.577 379.008 221.617 378.82 221.617 378.628C221.617 378.34 221.529 378.104 221.353 377.92C221.185 377.736 220.957 377.576 220.669 377.44C220.389 377.304 220.065 377.184 219.697 377.08C219.337 376.968 218.965 376.848 218.581 376.72C218.205 376.592 217.833 376.444 217.465 376.276C217.105 376.1 216.781 375.88 216.493 375.616C216.213 375.352 215.985 375.028 215.809 374.644C215.641 374.26 215.557 373.796 215.557 373.252C215.557 372.748 215.657 372.268 215.857 371.812C216.057 371.356 216.349 370.96 216.733 370.624C217.125 370.28 217.609 370.008 218.185 369.808C218.769 369.6 219.441 369.496 220.201 369.496C221.049 369.496 221.821 369.636 222.517 369.916C223.213 370.196 223.793 370.564 224.257 371.02L223.585 372.088ZM229.932 364.648V371.512C229.932 372.24 229.896 372.956 229.824 373.66C229.752 374.356 229.66 375.096 229.548 375.88H227.532C227.42 375.096 227.328 374.356 227.256 373.66C227.184 372.956 227.148 372.24 227.148 371.512V364.648H229.932ZM226.68 380.368C226.68 380.12 226.724 379.884 226.812 379.66C226.908 379.436 227.036 379.244 227.196 379.084C227.364 378.924 227.56 378.796 227.784 378.7C228.008 378.604 228.248 378.556 228.504 378.556C228.752 378.556 228.988 378.604 229.212 378.7C229.436 378.796 229.628 378.924 229.788 379.084C229.956 379.244 230.088 379.436 230.184 379.66C230.28 379.884 230.328 380.12 230.328 380.368C230.328 380.624 230.28 380.864 230.184 381.088C230.088 381.304 229.956 381.492 229.788 381.652C229.628 381.812 229.436 381.936 229.212 382.024C228.988 382.12 228.752 382.168 228.504 382.168C228.248 382.168 228.008 382.12 227.784 382.024C227.56 381.936 227.364 381.812 227.196 381.652C227.036 381.492 226.908 381.304 226.812 381.088C226.724 380.864 226.68 380.624 226.68 380.368Z" fill="white"/>
<path d="M187 335C214.614 335 237 312.614 237 285C237 257.386 214.614 235 187 235C159.386 235 137 257.386 137 285C137 312.614 159.386 335 187 335Z" fill="white"/>
<g clip-path="url(#clip1_61_5803)">
<path d="M182.833 291.608L201.983 272.456L204.931 275.402L182.833 297.5L169.575 284.242L172.521 281.296L182.833 291.608Z" fill="#567DF4"/>
</g>
</g>
<defs>
<clipPath id="clip0_61_5803">
<rect width="375" height="812" fill="white"/>
</clipPath>
<clipPath id="clip1_61_5803">
<rect width="50" height="50" fill="white" transform="translate(162 260)"/>
</clipPath>
</defs>
</svg>
